# xmcd
#
# Track frame offsets: 
#        150
#        18384
#        34678
#        49285
#        66854
#        80766
#        93112
#        116787
#        140991
#        166762
#        191045
#        211906
#        234202
#        253393
#        271498
#        290217
#        306720
#
# Disc length: 4292 seconds
#
# Revision: 0
# Processed by: cddbd v1.5.2PL0 Copyright (c) Steve Scherf et al.
# Submitted via: ExactAudioCopy v0.95b4
#
DISCID=0a10c211
DTITLE=Funkoff - Little beat
DYEAR=2003
DGENRE=Funk
TTITLE0=The funking been
TTITLE1=Tell it to me baby
TTITLE2=If u wanna dance
TTITLE3=Bopping
TTITLE4=Another island
TTITLE5=Funky fonchi
TTITLE6=As usual
TTITLE7=Friendship
TTITLE8=1, 2, 3
TTITLE9=Nothing to say
TTITLE10=Aow
TTITLE11=Funkessamba
TTITLE12=Top
TTITLE13=2000
TTITLE14=Little beat
TTITLE15=La banda
TTITLE16=Rough riding daddy
EXTD=
EXTT0=
EXTT1=
EXTT2=
EXTT3=
EXTT4=
EXTT5=
EXTT6=
EXTT7=
EXTT8=
EXTT9=
EXTT10=
EXTT11=
EXTT12=
EXTT13=
EXTT14=
EXTT15=
EXTT16=
PLAYORDER=
